PathFileType	4	(X/Y/Z)	C:\Users\Basilio\Documents\Thesis Gigler\squatting_fais\c3dfiles\047\SLS_pre_front4\markers_experimental.trc
DataRate	CameraRate	NumFrames	NumMarkers	Units	OrigDataRate	OrigDataStartFrame	OrigNumFrames
200.000000	200.000000	4	60	mm	200.000000	702	1404
Frame#	Time	FHD			LBHD			RBHD			C7			T10			CLAV			LSHO			LUUPA			LMUPA			LDUPA			LLEP			LMEP			LRAD			LUL			LRFIN			RSHO			RUPA1			RMUPA			RDUPA			RLEP			RMEP			RRAD			RUL			RUFIN			LASI			RASI			USACR			LSACR			RSACR			LTHI1			LTHI2			LTHI3			LTHI4			LLFC			LMFC			LTIB1			LTIB2			LTIB3			LTIB4			LLMAL			LMMAL			LMT1			LMT2			LMT5			RTHI			RTHI2			RTHI3			RTHI4			RLFC			RMFC			RTIB1			RTIB2			RTIB3			RTIB4			RLMAL			RMMAL			RHEE			RMT1			RMT2			RMT5			
		X1	Y1	Z1	X2	Y2	Z2	X3	Y3	Z3	X4	Y4	Z4	X5	Y5	Z5	X6	Y6	Z6	X7	Y7	Z7	X8	Y8	Z8	X9	Y9	Z9	X10	Y10	Z10	X11	Y11	Z11	X12	Y12	Z12	X13	Y13	Z13	X14	Y14	Z14	X15	Y15	Z15	X16	Y16	Z16	X17	Y17	Z17	X18	Y18	Z18	X19	Y19	Z19	X20	Y20	Z20	X21	Y21	Z21	X22	Y22	Z22	X23	Y23	Z23	X24	Y24	Z24	X25	Y25	Z25	X26	Y26	Z26	X27	Y27	Z27	X28	Y28	Z28	X29	Y29	Z29	X30	Y30	Z30	X31	Y31	Z31	X32	Y32	Z32	X33	Y33	Z33	X34	Y34	Z34	X35	Y35	Z35	X36	Y36	Z36	X37	Y37	Z37	X38	Y38	Z38	X39	Y39	Z39	X40	Y40	Z40	X41	Y41	Z41	X42	Y42	Z42	X43	Y43	Z43	X44	Y44	Z44	X45	Y45	Z45	X46	Y46	Z46	X47	Y47	Z47	X48	Y48	Z48	X49	Y49	Z49	X50	Y50	Z50	X51	Y51	Z51	X52	Y52	Z52	X53	Y53	Z53	X54	Y54	Z54	X55	Y55	Z55	X56	Y56	Z56	X57	Y57	Z57	X58	Y58	Z58	X59	Y59	Z59	X60	Y60	Z60	

703	3.51	-126.4029235839844	1499.706787109375	-1074.639282226563	-305.8658447265626	1478.838745117188	-1104.313842773438	-286.3269958496094	1483.763427734375	-957.0546875000002	-355.6774902343751	1313.894409179688	-1027.737182617188	-442.5237121582032	1021.069702148438	-1000.228393554688	-210.8520050048829	1239.61767578125	-1053.716674804688	-287.3232116699219	1288.845825195313	-1192.473754882813	-212.4121704101563	1217.091064453125	-1329.626708984375	-183.6690826416016	1256.5478515625	-1324.335327148438	-150.1990966796875	1221.871948242188	-1359.97314453125	-90.96434783935548	1239.530883789063	-1383.213500976563	-60.9785842895508	1177.541870117188	-1339.842651367188	179.3863067626953	1237.5439453125	-1402.550903320313	156.0453033447266	1254.016479492188	-1475.456909179688	253.6177368164063	1263.293701171875	-1434.262939453125	-245.3537750244141	1303.320556640625	-909.238952636719	-114.6609573364258	1247.834594726563	-801.8748168945315	-88.92327880859376	1281.62548828125	-826.0996093750002	-44.76058197021485	1246.670654296875	-803.801208496094	21.97961616516114	1261.687377929688	-814.3022460937502	29.9791488647461	1193.484252929688	-859.0894165039065	277.6144104003907	1260.850830078125	-886.3044433593752	278.6191406250001	1280.836059570313	-817.783874511719	362.1383361816407	1283.26171875	-883.5996704101565	-316.2438354492188	779.6113891601565	-1083.5	-307.3760375976563	810.4942626953127	-858.9794921875002	-487.3579711914064	878.256774902344	-979.2461547851565	-500.3224182128907	847.2068481445315	-1004.692443847656	-494.6377868652345	849.6655883789065	-947.828308105469	-325.8796691894532	644.5709838867189	-1158.3251953125	-245.120834350586	618.4798583984376	-1161.359985351563	-213.9847412109376	653.5485839843751	-1148.578979492188	-225.1725158691407	561.7145385742189	-1163.392944335938	-122.4254455566407	434.3910522460939	-1134.961059570313	-83.67044067382814	449.3192749023439	-1011.333679199219	-160.0046997070313	283.5395812988282	-1015.29052734375	-184.9325866699219	234.6895751953126	-1083.274536132813	-175.5697021484375	232.1102752685547	-1036.856201171875	-232.3660278320313	181.5923767089844	-1003.1533203125	-322.3623046875001	115.579330444336	-1050.624633789063	-301.1447753906251	136.11279296875	-961.594421386719	-190.954574584961	61.18627929687501	-975.7191162109377	-187.8535614013672	60.1344337463379	-1020.877746582031	-237.7093963623047	45.96667098999024	-1065.532592773438	-296.9984741210938	656.2791748046876	-761.1782836914064	-230.5341186523438	651.0267944335939	-768.3281250000002	-212.3929290771485	674.9979248046876	-780.2425537109377	-186.6889343261719	579.5648803710939	-774.3236083984377	-71.1486282348633	492.7141723632814	-801.6887817382815	-60.52455902099611	496.6140136718751	-924.9328613281252	38.13057708740235	419.0139465332032	-828.1734008789065	48.64551162719728	319.1627502441407	-782.675964355469	79.57644653320314	345.6445922851563	-806.4821777343752	113.0274353027344	313.4039001464844	-841.8940429687502	163.7711486816407	160.9222869873047	-808.3021240234377	165.4142608642578	180.6949615478516	-898.1463623046877	128.9856567382813	97.50991821289065	-851.740173339844	312.9149475097657	186.5598754882813	-898.3815917968752	319.1627807617188	198.8233337402344	-856.710876464844	298.6062011718751	158.5543212890625	-794.4094848632815	
704	3.515	-125.7696914672852	1498.7265625	-1074.493286132813	-305.3407897949219	1477.715942382813	-1104.314331054688	-285.9211425781251	1482.583984375	-956.840759277344	-355.1213378906251	1313.078002929688	-1027.727416992188	-442.4503173828126	1020.283264160156	-1000.2724609375	-210.7224273681641	1238.546020507813	-1053.895385742188	-286.7922973632813	1287.786376953125	-1192.465454101563	-211.8465576171876	1216.116577148438	-1329.607177734375	-183.177490234375	1255.572265625	-1324.323486328125	-149.8905487060547	1220.796997070313	-1359.87255859375	-90.54150390625001	1238.37841796875	-1383.151123046875	-60.60590744018556	1176.659545898438	-1340.1708984375	178.3566284179688	1235.878173828125	-1402.558471679688	156.4767303466797	1252.653564453125	-1475.458618164063	253.9806671142579	1262.143432617188	-1434.330200195313	-244.9451141357422	1302.065185546875	-909.3834228515627	-114.3377456665039	1246.506225585938	-801.4595947265627	-88.67488098144533	1280.750732421875	-826.4243164062502	-44.32951736450196	1245.449829101563	-803.9094848632815	22.13384437561036	1260.1572265625	-814.143493652344	30.30674934387208	1192.351684570313	-859.096618652344	277.8613891601563	1259.447387695313	-886.152770996094	279.0760803222657	1279.180053710938	-817.786315917969	362.2061462402344	1281.706420898438	-882.7459716796877	-316.4881896972657	778.6729736328127	-1083.568603515625	-307.4269104003907	809.3025512695315	-859.006774902344	-487.4483032226564	877.3822021484377	-979.2529296875002	-500.5139770507814	846.3943481445315	-1004.858825683594	-494.768524169922	848.560974121094	-947.9280395507815	-326.0154724121094	643.7911987304689	-1158.385864257813	-245.3104705810547	617.9686279296876	-1161.293579101563	-214.022933959961	653.1740722656251	-1148.71923828125	-225.184555053711	561.2146606445314	-1163.435791015625	-122.1176834106446	434.0771484375001	-1134.99658203125	-83.49556732177736	449.1958007812501	-1011.195922851563	-159.7593383789063	283.4664916992188	-1015.300537109375	-181.2068939208985	235.8731079101563	-1084.274291992188	-175.5085601806641	231.9356231689454	-1036.712646484375	-232.3636016845704	181.7069244384766	-1002.792419433594	-322.3410644531251	115.4987716674805	-1050.646850585938	-301.1224060058594	136.010238647461	-961.6638183593752	-190.7799377441407	61.25763320922853	-975.7802734375002	-187.8512268066407	60.13262176513673	-1020.863708496094	-237.380111694336	45.88687133789063	-1065.468872070313	-297.2937622070313	655.2100830078126	-761.2086181640626	-230.5990905761719	650.0610961914064	-768.2750244140627	-212.7663116455079	674.2733764648439	-780.515075683594	-187.184555053711	578.8367919921876	-774.3906250000002	-71.23275756835939	491.8616333007814	-801.798767089844	-60.95611953735353	495.7664489746095	-924.9824218750002	37.8724479675293	418.4667358398439	-828.2836914062502	48.59384536743165	318.3556518554688	-782.6102294921877	79.61915588378908	344.9430847167969	-806.5952758789065	112.9582672119141	312.7355041503907	-841.663513183594	164.0907897949219	160.5659942626953	-808.3920898437502	165.7381286621094	180.2807922363282	-898.3423461914065	129.5601348876953	96.97966003417972	-852.173522949219	313.2493286132813	186.5395050048828	-898.6489257812502	319.5702514648438	198.5905914306641	-857.023620605469	299.0058593750001	158.3670043945313	-794.600769042969	
705	3.52	-125.3818664550782	1497.635498046875	-1074.44677734375	-304.5936889648438	1476.207641601563	-1104.281982421875	-285.0246276855469	1481.483154296875	-956.8445434570315	-354.7409667968751	1311.969604492188	-1027.677490234375	-442.2415161132814	1019.036254882813	-1000.169616699219	-210.6018676757813	1237.441772460938	-1053.937377929688	-286.0672607421876	1286.720336914063	-1192.450805664063	-211.4589080810547	1214.979125976563	-1329.712158203125	-182.5760498046875	1254.391845703125	-1324.386108398438	-149.5257263183594	1219.73876953125	-1359.862426757813	-90.2986297607422	1237.292724609375	-1383.207641601563	-60.29362869262697	1174.9853515625	-1340.191284179688	178.8722381591797	1234.291748046875	-1402.744995117188	156.9964904785157	1251.216186523438	-1475.405883789063	254.284652709961	1260.53955078125	-1433.983520507813	-244.5868530273438	1301.154052734375	-909.359802246094	-114.0105361938477	1245.24072265625	-801.4270019531252	-88.00442504882814	1279.278930664063	-826.2358398437502	-43.79104614257813	1244.415771484375	-804.3223876953127	22.61664009094239	1258.963134765625	-814.0957031250002	30.42136383056641	1191.059326171875	-858.4796142578127	280.9744873046876	1259.304077148438	-888.199157714844	279.3512268066407	1277.61572265625	-817.6135253906252	362.6688537597657	1280.220825195313	-882.8217773437502	-316.8086853027344	777.8363037109377	-1083.573974609375	-307.8089599609376	808.5022583007815	-858.8160400390627	-487.534881591797	876.5918579101565	-979.2769165039065	-500.6429138183595	845.6092529296877	-1004.93017578125	-494.9712524414064	847.8340454101565	-947.9934082031252	-326.1706542968751	643.0481567382814	-1158.401611328125	-245.4555358886719	617.4659423828126	-1161.312377929688	-214.2922973632813	652.7810668945314	-1148.68994140625	-225.0328674316407	560.6834106445314	-1163.45166015625	-121.8064422607422	433.7725524902345	-1134.931274414063	-83.33415985107423	449.0513916015626	-1010.948913574219	-159.5675659179688	283.3435668945313	-1015.185180664063	-184.83984375	234.1772613525391	-1082.946899414063	-175.3423004150391	231.7486724853516	-1036.564453125	-232.3702087402344	181.6976928710938	-1002.574523925781	-322.3346252441407	115.5665664672852	-1050.626342773438	-301.1025695800782	135.9837188720703	-961.6477050781252	-190.8786163330078	61.18609619140626	-975.731872558594	-187.8153686523438	60.14712142944337	-1020.818054199219	-237.6500244140626	45.99851608276368	-1065.506469726563	-297.6173400878907	654.3027954101564	-761.1920166015626	-230.9904479980469	648.8900146484376	-767.7414550781251	-212.7663116455079	673.2858886718751	-780.3516845703127	-187.4494171142578	577.7064819335939	-774.5166015625002	-71.41136169433595	491.0975036621095	-801.9578857421877	-60.87874984741212	494.8314208984376	-925.0369262695315	37.76871490478516	417.8406677246095	-828.3679809570315	48.64625549316408	317.7012023925782	-782.832702636719	79.65370941162111	344.2289733886719	-806.7808837890627	113.3948211669922	312.0707397460938	-842.2644653320315	164.4661254882813	160.4508514404297	-808.4412841796877	165.7588195800782	179.5075225830078	-898.377380371094	129.7294921875	96.81912994384768	-852.3112792968752	313.3951416015626	186.4787750244141	-898.8247070312502	319.7954101562501	198.5077667236329	-857.2288208007815	299.1790161132813	158.0718383789063	-794.8498535156252	
706	3.525	-124.7411880493164	1496.072875976563	-1074.436279296875	-304.0389099121094	1475.003662109375	-1104.338989257813	-284.3616638183594	1480.442504882813	-957.031677246094	-354.3463745117188	1310.982543945313	-1027.754516601563	-442.2208862304689	1018.646789550781	-1000.366455078125	-209.7539215087891	1236.168823242188	-1053.947387695313	-285.7619934082032	1285.6298828125	-1192.506713867188	-211.0252838134766	1213.910522460938	-1329.685180664063	-182.0634460449219	1253.27978515625	-1324.656616210938	-149.0235443115235	1218.796630859375	-1359.860961914063	-89.49813079833986	1235.961669921875	-1383.230712890625	-59.87180709838869	1173.960693359375	-1339.267944335938	179.7801818847657	1233.1767578125	-1402.444091796875	157.2443542480469	1249.973022460938	-1475.309692382813	254.6292877197266	1259.339477539063	-1433.95654296875	-244.0747528076172	1300.013427734375	-909.4915161132815	-113.7881774902344	1244.135498046875	-801.4124755859377	-87.55550384521486	1278.2314453125	-826.2957153320315	-43.99679946899415	1243.078979492188	-803.520202636719	22.99394035339356	1257.736694335938	-814.2041015625002	31.02102088928223	1189.792114257813	-859.1579589843752	281.7063903808594	1257.96435546875	-888.3187255859377	279.8563537597657	1276.272705078125	-817.6013183593752	363.1663208007813	1278.60986328125	-882.609802246094	-317.1236877441407	776.902526855469	-1083.595458984375	-308.0257873535157	807.563415527344	-858.7738037109377	-487.7967224121095	875.7168579101565	-979.413269042969	-500.8998413085939	844.7131347656252	-1004.989135742188	-495.1196594238282	847.1090087890627	-948.0278320312502	-326.3067932128907	642.2711791992189	-1158.362915039063	-245.5264282226563	616.8786010742189	-1161.329223632813	-214.3860015869141	652.4099121093751	-1148.844604492188	-225.0310211181641	560.0575561523439	-1163.441162109375	-121.3957290649414	433.3498535156251	-1134.830810546875	-83.34314727783205	448.8225402832032	-1010.712036132813	-159.4424438476563	283.2555847167969	-1015.095886230469	-184.7257232666016	233.9624481201172	-1082.77880859375	-175.3052215576172	231.7071990966797	-1036.362548828125	-232.3483581542969	181.5413208007813	-1002.649658203125	-322.2781677246094	115.5206069946289	-1050.630981445313	-301.1502380371094	136.0280303955078	-961.5571289062502	-190.7250366210938	61.27104568481447	-975.7088012695315	-187.8223419189453	60.09380340576173	-1020.82763671875	-237.5760192871094	46.0649642944336	-1065.487548828125	-297.8786926269532	653.3200073242189	-761.1149291992189	-231.2923889160157	648.0144042968751	-768.0021972656252	-213.1517333984376	672.2807006835939	-780.2199707031252	-187.5842742919922	576.7554321289064	-774.7971801757815	-71.61682128906251	490.3151855468751	-802.2276611328127	-60.99709320068361	493.937957763672	-925.2641601562502	37.70583724975587	417.0205688476564	-828.5062255859377	48.78742980957033	317.0647583007813	-783.1057739257815	79.5658645629883	343.6666870117188	-806.7710571289065	113.2373428344727	311.5881347656251	-842.5310058593752	164.467269897461	159.766830444336	-808.6170654296877	166.7171630859375	179.6302490234375	-898.6929931640627	130.5588989257813	95.90506744384767	-852.7093505859377	313.7351684570313	186.183578491211	-899.0059204101565	319.8989868164063	198.3065490722657	-857.0423583984377	299.2784423828126	157.7271423339844	-794.8662109375002	
